#define cb5189b491cf401da488a7ee3fe648722XoInTsAy0Wut8VS_width 225
#define cb5189b491cf401da488a7ee3fe648722XoInTsAy0Wut8VS_height 225
static char cb5189b491cf401da488a7ee3fe648722XoInTsAy0Wut8VS_bits[] = {
  0x00, 0x00, 0x00, 0x00, 0x00, 0x00, 0x00, 0x00, 0x00, 0x00, 0x00, 0x00, 
  0x00, 0x00, 0x00, 0x00, 0x00, 0x00, 0x00, 0x00, 0x00, 0x00, 0x00, 0x00, 
  0x00, 0x00, 0x00, 0x00, 0x00, 0x00, 0x00, 0x00, 0x00, 0x00, 0x00, 0x00, 
  0x00, 0x00, 0x00, 0x00, 0x00, 0x00, 0x00, 0x00, 0x00, 0x00, 0x00, 0x00, 
  0x00, 0x00, 0x00, 0x00, 0x00, 0x00, 0x00, 0x00, 0x00, 0x00, 0x00, 0x00, 
  0x00, 0x00, 0x00, 0x00, 0x00, 0x00, 0x00, 0x00, 0x00, 0x00, 0x00, 0x00, 
  0x00, 0x00, 0x00, 0x00, 0x00, 0x00, 0x00, 0x00, 0x00, 0x00, 0x00, 0x00, 
  0x00, 0x00, 0x00, 0x00, 0x00, 0x00, 0x00, 0x00, 0x00, 0x00, 0x00, 0x00, 
  0x00, 0x00, 0x00, 0x00, 0x00, 0x00, 0x00, 0x00, 0x00, 0x00, 0x00, 0x00, 
  0x00, 0x00, 0x00, 0x00, 0x00, 0x00, 0x00, 0x00, 0x00, 0x00, 0x00, 0x00, 
  0x00, 0x00, 0x00, 0x00, 0x00, 0x00, 0x00, 0x00, 0x00, 0x00, 0x00, 0x00, 
  0x00, 0x00, 0x00, 0x00, 0x00, 0x00, 0x00, 0x00, 0x00, 0x00, 0x00, 0x00, 
  0x00, 0x00, 0x00, 0x00, 0x00, 0x00, 0x00, 0x00, 0x00, 0x00, 0x00, 0x00, 
  0x00, 0x00, 0x00, 0x00, 0x00, 0x00, 0x00, 0x00, 0x00, 0x00, 0x00, 0x00, 
  0x00, 0x00, 0x00, 0x00, 0x00, 0x00, 0x00, 0x00, 0x00, 0x00, 0x00, 0x00, 
  0x00, 0x00, 0x00, 0x00, 0x00, 0x00, 0x00, 0x00, 0x00, 0x00, 0x00, 0x00, 
  0x00, 0x00, 0x00, 0x00, 0x00, 0x00, 0x00, 0x00, 0x00, 0x00, 0x00, 0x00, 
  0x00, 0x00, 0x00, 0x00, 0x00, 0x00, 0x00, 0x00, 0x00, 0x00, 0x00, 0x00, 
  0x00, 0x00, 0x00, 0x00, 0x00, 0x00, 0x00, 0x00, 0x00, 0x00, 0x00, 0x00, 
  0x00, 0x00, 0x00, 0x00, 0x00, 0x00, 0x00, 0x00, 0x00, 0x00, 0x00, 0x00, 
  0x00, 0x00, 0x00, 0x00, 0x00, 0x00, 0x00, 0x00, 0x00, 0x00, 0x00, 0x00, 
  0x00, 0x00, 0x00, 0x00, 0x00, 0x00, 0x00, 0x00, 0x00, 0x00, 0x00, 0x00, 
  0x00, 0x00, 0x00, 0x00, 0x00, 0x00, 0x00, 0x00, 0x00, 0x00, 0x00, 0x00, 
  0x00, 0x00, 0x00, 0x00, 0x00, 0x00, 0x00, 0x00, 0x00, 0x00, 0x00, 0x00, 
  0x00, 0x00, 0x00, 0x00, 0x00, 0x00, 0x00, 0x00, 0x00, 0x00, 0x00, 0x00, 
  0x00, 0x00, 0x00, 0x00, 0x00, 0x00, 0x00, 0x00, 0x00, 0x00, 0x00, 0x00, 
  0x00, 0x00, 0x00, 0x00, 0x00, 0x00, 0x00, 0x00, 0x00, 0x00, 0x00, 0x00, 
  0x00, 0x00, 0x00, 0x00, 0x00, 0x00, 0x00, 0x00, 0x00, 0x00, 0x00, 0x00, 
  0x00, 0x00, 0x00, 0x00, 0x00, 0x00, 0x00, 0x00, 0x00, 0x00, 0x00, 0x00, 
  0x00, 0x00, 0x00, 0x00, 0x00, 0x00, 0x00, 0x00, 0x00, 0x00, 0x00, 0x00, 
  0x00, 0x00, 0x00, 0x00, 0x00, 0x00, 0x00, 0x00, 0x00, 0x00, 0x00, 0x00, 
  0x00, 0x00, 0x00, 0x00, 0x00, 0x00, 0x00, 0x00, 0x00, 0x00, 0x00, 0x00, 
  0x00, 0x00, 0x00, 0x00, 0x00, 0x00, 0x00, 0x00, 0x00, 0x00, 0x00, 0x00, 
  0x00, 0x00, 0x00, 0x00, 0x00, 0x00, 0x00, 0x00, 0x00, 0x00, 0x00, 0x00, 
  0x00, 0x00, 0x00, 0x00, 0x00, 0x00, 0x00, 0x00, 0x00, 0x00, 0x00, 0x00, 
  0x00, 0x00, 0x00, 0x00, 0x00, 0x00, 0x00, 0x00, 0x00, 0x00, 0x00, 0x00, 
  0x00, 0x00, 0x00, 0x00, 0x00, 0x00, 0x00, 0x00, 0x00, 0x00, 0x00, 0x00, 
  0x00, 0x00, 0x00, 0x00, 0x00, 0x00, 0x00, 0x00, 0x00, 0x00, 0x00, 0x00, 
  0x00, 0x00, 0x00, 0x00, 0x00, 0x00, 0x00, 0x00, 0x00, 0x00, 0x00, 0x00, 
  0x00, 0x00, 0x00, 0x00, 0x00, 0x00, 0x00, 0x00, 0x00, 0x00, 0x00, 0x00, 
  0x00, 0x00, 0x00, 0x00, 0x00, 0x00, 0x00, 0x00, 0x00, 0x00, 0x00, 0x00, 
  0x00, 0x00, 0x00, 0x00, 0x00, 0x00, 0x00, 0x00, 0x00, 0x00, 0x00, 0x00, 
  0x00, 0x00, 0x00, 0x00, 0x00, 0x00, 0x00, 0x00, 0x00, 0x00, 0x00, 0x00, 
  0x00, 0x00, 0x00, 0x00, 0x00, 0x00, 0x00, 0x00, 0x00, 0x00, 0x00, 0x00, 
  0x00, 0x00, 0x00, 0x00, 0x00, 0x00, 0x00, 0x00, 0x00, 0x00, 0x00, 0x00, 
  0x00, 0x00, 0x00, 0x00, 0x00, 0x00, 0x00, 0x00, 0x00, 0x00, 0x00, 0x00, 
  0x00, 0x00, 0x00, 0x00, 0x00, 0x00, 0x00, 0x00, 0x00, 0x00, 0x00, 0x00, 
  0x00, 0x00, 0x00, 0x00, 0x00, 0x00, 0x00, 0x00, 0x00, 0x00, 0x00, 0x00, 
  0x00, 0x00, 0x00, 0x00, 0x00, 0x00, 0x00, 0x00, 0x00, 0x00, 0x00, 0x00, 
  0x00, 0x00, 0x00, 0x00, 0x00, 0x00, 0x00, 0x00, 0x00, 0x00, 0x00, 0x00, 
  0x00, 0x00, 0x00, 0x00, 0x00, 0x00, 0x00, 0x00, 0x00, 0x00, 0x00, 0x00, 
  0x00, 0x00, 0x00, 0x00, 0x00, 0x00, 0x00, 0x00, 0x00, 0x00, 0x00, 0x00, 
  0x00, 0x00, 0x00, 0x00, 0x00, 0x00, 0x00, 0x00, 0x00, 0x00, 0x00, 0x00, 
  0x00, 0x00, 0x00, 0x00, 0x00, 0x00, 0x00, 0x00, 0x00, 0x00, 0x00, 0x00, 
  0x00, 0x00, 0x00, 0x00, 0x00, 0x00, 0x00, 0x00, 0x00, 0x00, 0x00, 0x00, 
  0x00, 0x00, 0x00, 0x00, 0x00, 0x00, 0x00, 0x00, 0x00, 0x00, 0x00, 0x00, 
  0x00, 0x00, 0x00, 0x00, 0x00, 0x08, 0x00, 0x00, 0x00, 0x00, 0x00, 0x00, 
  0x00, 0x00, 0x00, 0x00, 0x00, 0x00, 0x00, 0x00, 0x00, 0x00, 0x00, 0x00, 
  0x00, 0x00, 0x00, 0x00, 0x00, 0x00, 0x00, 0x00, 0x00, 0x00, 0x3E, 0x30, 
  0x00, 0x00, 0x00, 0x00, 0x00, 0x00, 0x00, 0x00, 0x00, 0x00, 0x00, 0x00, 
  0x00, 0x00, 0x00, 0x00, 0x00, 0x00, 0x00, 0x00, 0x00, 0x00, 0x00, 0x00, 
  0x00, 0x00, 0x80, 0x00, 0x2A, 0x38, 0x00, 0x00, 0x00, 0x00, 0x00, 0x00, 
  0x00, 0x00, 0x00, 0x00, 0x00, 0x00, 0x00, 0x00, 0x00, 0x00, 0x00, 0x00, 
  0x00, 0x00, 0x00, 0x00, 0x00, 0x00, 0x00, 0x00, 0x80, 0x10, 0x06, 0x14, 
  0x08, 0x00, 0x00, 0x00, 0x00, 0x00, 0x00, 0x00, 0x00, 0x00, 0x00, 0x00, 
  0x00, 0x00, 0x00, 0x00, 0x00, 0x00, 0x00, 0x00, 0x00, 0x00, 0x00, 0x00, 
  0x00, 0xC0, 0x81, 0x81, 0x0D, 0x14, 0x08, 0x00, 0x00, 0x00, 0x00, 0x00, 
  0x00, 0x00, 0x00, 0x00, 0x00, 0x00, 0x00, 0x00, 0x00, 0x00, 0x00, 0x00, 
  0x00, 0x00, 0x00, 0x00, 0x00, 0x10, 0xE0, 0x81, 0xE1, 0x81, 0x0D, 0x0A, 
  0x06, 0x00, 0x00, 0x00, 0x00, 0x00, 0x00, 0x00, 0x00, 0x00, 0x00, 0x00, 
  0x00, 0x00, 0x00, 0x00, 0x00, 0x00, 0x00, 0x00, 0x00, 0x00, 0x00, 0xE0, 
  0xE7, 0x83, 0xE1, 0xC0, 0x05, 0x09, 0x06, 0x00, 0x00, 0x00, 0x00, 0x00, 
  0x00, 0x00, 0x00, 0x00, 0x00, 0x00, 0x00, 0x00, 0x00, 0x00, 0x00, 0x00, 
  0x00, 0x00, 0x00, 0xB0, 0xC6, 0xE3, 0xA3, 0xC3, 0xE0, 0xC0, 0x82, 0x09, 
  0x06, 0x00, 0x00, 0x00, 0x00, 0x00, 0x00, 0x00, 0x00, 0x00, 0x00, 0x00, 
  0x00, 0x00, 0x00, 0x00, 0x00, 0x00, 0x00, 0x00, 0x08, 0x20, 0x25, 0xF2, 
  0xF3, 0xC1, 0xF0, 0x60, 0x82, 0x05, 0x02, 0x00, 0x00, 0x00, 0x00, 0x00, 
  0x00, 0x00, 0x00, 0x00, 0x00, 0x00, 0x00, 0x00, 0x00, 0x00, 0x00, 0x00, 
  0x00, 0x14, 0x20, 0xB2, 0xB2, 0xF2, 0xD3, 0xC1, 0x70, 0x60, 0x40, 0x0D, 
  0x06, 0x01, 0x00, 0x00, 0x00, 0x00, 0x00, 0x00, 0x00, 0x00, 0x00, 0x00, 
  0x00, 0x00, 0x00, 0x00, 0x00, 0x00, 0x00, 0x10, 0x00, 0x48, 0xE1, 0xF1, 
  0xD9, 0xE1, 0x70, 0x78, 0x80, 0x05, 0x04, 0x00, 0x00, 0x00, 0x00, 0x00, 
  0x00, 0x00, 0x00, 0x00, 0x00, 0x00, 0x00, 0x00, 0x00, 0x00, 0x40, 0x18, 
  0x24, 0x10, 0x01, 0x42, 0xBA, 0xF8, 0xE9, 0x60, 0x60, 0x10, 0x60, 0x0B, 
  0x00, 0x00, 0x00, 0x00, 0x00, 0x00, 0x00, 0x00, 0x00, 0x00, 0x00, 0x00, 
  0x00, 0x00, 0x00, 0x00, 0xF0, 0x23, 0x10, 0x18, 0x28, 0x40, 0xAC, 0xF8, 
  0x79, 0x60, 0x38, 0x70, 0x80, 0x07, 0x02, 0x00, 0x00, 0x00, 0x00, 0x00, 
  0x00, 0x00, 0x00, 0x00, 0x00, 0x00, 0x00, 0x00, 0x00, 0xF8, 0xE7, 0x2F, 
  0x18, 0x0A, 0x8A, 0xA4, 0x9C, 0xFC, 0xF4, 0x30, 0x70, 0x30, 0x82, 0x0E, 
  0x00, 0x00, 0x00, 0x00, 0x00, 0x00, 0x00, 0x00, 0x00, 0x00, 0x00, 0x00, 
  0x00, 0x00, 0xE0, 0xE7, 0xF7, 0x17, 0x10, 0x00, 0x04, 0xA4, 0xD4, 0xFE, 
  0x79, 0x60, 0x70, 0x60, 0x15, 0x00, 0x00, 0x00, 0x00, 0x00, 0x00, 0x00, 
  0x00, 0x00, 0x00, 0x00, 0x00, 0x00, 0x00, 0xC0, 0xC7, 0xEF, 0x3F, 0x11, 
  0x1A, 0x04, 0x05, 0x65, 0x5A, 0xFC, 0x64, 0x60, 0x10, 0x38, 0x00, 0x00, 
  0x00, 0x00, 0x00, 0x00, 0x00, 0x00, 0x00, 0x00, 0x00, 0x00, 0x00, 0x00, 
  0xE0, 0xC3, 0xC7, 0xF7, 0xDB, 0x18, 0x0E, 0x08, 0x04, 0xA6, 0xD4, 0xFD, 
  0x68, 0x38, 0x30, 0x00, 0x00, 0x00, 0x00, 0x00, 0x00, 0x00, 0x00, 0x00, 
  0x00, 0x00, 0x00, 0x00, 0x04, 0x80, 0x81, 0xCF, 0xEF, 0xF7, 0x3B, 0x0C, 
  0x0C, 0x81, 0x12, 0xA5, 0xF4, 0xFE, 0x78, 0x60, 0x00, 0x00, 0x00, 0x00, 
  0x00, 0x00, 0x00, 0x00, 0x00, 0x00, 0x00, 0x00, 0x00, 0x00, 0x00, 0x00, 
  0x82, 0xE7, 0xE7, 0xF3, 0x09, 0x0A, 0x0C, 0x04, 0x14, 0x04, 0xE8, 0xFC, 
  0xFB, 0x00, 0x00, 0x00, 0x00, 0x00, 0x00, 0x00, 0x00, 0x00, 0x00, 0x00, 
  0x00, 0x00, 0x00, 0x02, 0x00, 0x00, 0xE0, 0xE3, 0xE3, 0xFF, 0x18, 0x0C, 
  0x05, 0x04, 0x1C, 0xCA, 0xFC, 0xFF, 0x0F, 0x00, 0x00, 0x00, 0x00, 0x00, 
  0x00, 0x00, 0x00, 0x00, 0x00, 0x00, 0x00, 0x00, 0x00, 0x04, 0x00, 0xC0, 
  0xE1, 0xE3, 0xF3, 0xF9, 0x99, 0x06, 0x46, 0x81, 0x12, 0x04, 0xFE, 0x3F, 
  0x00, 0x00, 0x00, 0x00, 0x00, 0x00, 0x00, 0x00, 0x00, 0x00, 0x00, 0x00, 
  0x80, 0x10, 0x88, 0x00, 0x00, 0xC2, 0xE3, 0xF3, 0xF3, 0xF9, 0x4C, 0x0C, 
  0x0E, 0x22, 0x00, 0x50, 0x7A, 0x00, 0x00, 0x00, 0x00, 0x00, 0x00, 0x00, 
  0x00, 0x00, 0x00, 0x00, 0x00, 0x04, 0x00, 0x00, 0x02, 0x00, 0x00, 0xC0, 
  0xF3, 0xF1, 0xF1, 0xF9, 0x99, 0x80, 0x02, 0x65, 0x49, 0x72, 0x00, 0x00, 
  0x00, 0x00, 0x00, 0x00, 0x00, 0x00, 0x00, 0x00, 0x00, 0x80, 0x00, 0x01, 
  0x00, 0x40, 0x00, 0x00, 0xC0, 0xF1, 0xF1, 0xF1, 0xF1, 0xF9, 0xBC, 0x05, 
  0x06, 0x88, 0x36, 0x00, 0x00, 0x00, 0x00, 0x00, 0x00, 0x00, 0x00, 0x00, 
  0x00, 0x00, 0x00, 0x00, 0x00, 0x00, 0x00, 0x08, 0x00, 0x00, 0xC0, 0xF0, 
  0xF1, 0xF3, 0xF1, 0xF1, 0xA6, 0x0C, 0x80, 0x79, 0x00, 0x00, 0x00, 0x00, 
  0x00, 0x00, 0x00, 0x00, 0x00, 0x00, 0x00, 0x00, 0x00, 0x01, 0x00, 0x00, 
  0x00, 0x40, 0x28, 0x08, 0x80, 0xE0, 0xF1, 0xF1, 0xF1, 0xFF, 0xEC, 0x20, 
  0x78, 0x00, 0x00, 0x00, 0x00, 0x00, 0x00, 0x00, 0x00, 0x00, 0x00, 0x00, 
  0x00, 0x00, 0x00, 0x00, 0x00, 0x00, 0x02, 0x00, 0x00, 0x00, 0x60, 0xF0, 
  0xF1, 0xF9, 0xF1, 0xF9, 0x40, 0x7A, 0x00, 0x00, 0x00, 0x00, 0x00, 0x00, 
  0x00, 0x00, 0x00, 0x00, 0x00, 0x20, 0x40, 0x88, 0x81, 0x00, 0x10, 0x00, 
  0x00, 0x00, 0x08, 0x00, 0x00, 0xF0, 0xF0, 0xF9, 0xF1, 0x61, 0x34, 0x00, 
  0x00, 0x00, 0x00, 0x00, 0x00, 0x00, 0x00, 0x00, 0x00, 0x00, 0x00, 0x08, 
  0x00, 0x00, 0x81, 0x01, 0x00, 0x00, 0x00, 0x40, 0x00, 0x00, 0x00, 0xF0, 
  0xF0, 0xF8, 0x41, 0x79, 0x00, 0x00, 0x00, 0x00, 0x00, 0x00, 0x00, 0x00, 
  0x00, 0x00, 0x00, 0x20, 0x00, 0x00, 0x00, 0x10, 0x00, 0x00, 0x00, 0x44, 
  0x00, 0x00, 0x00, 0x10, 0x00, 0xF0, 0xF0, 0x60, 0x7A, 0x00, 0x00, 0x00, 
  0x00, 0x00, 0x00, 0x00, 0x00, 0x00, 0x00, 0x00, 0x00, 0x00, 0x08, 0x80, 
  0x00, 0x10, 0x00, 0x00, 0x00, 0x00, 0x00, 0x00, 0x00, 0x00, 0x00, 0xE0, 
  0x90, 0x78, 0x00, 0x00, 0x00, 0x00, 0x00, 0x00, 0x00, 0x00, 0x00, 0x00, 
  0x00, 0x88, 0x01, 0x02, 0x00, 0x00, 0x00, 0x08, 0x02, 0x00, 0x00, 0x00, 
  0x42, 0x00, 0x10, 0x00, 0x00, 0x40, 0x75, 0x00, 0x00, 0x00, 0x00, 0x00, 
  0x00, 0x00, 0x00, 0x00, 0x00, 0x00, 0x10, 0x14, 0x40, 0x01, 0x00, 0x01, 
  0x20, 0x40, 0x00, 0x10, 0x88, 0x00, 0x00, 0x00, 0x00, 0x04, 0x18, 0x79, 
  0x00, 0x00, 0x00, 0x00, 0x00, 0x00, 0x00, 0x00, 0x00, 0x00, 0x00, 0xC0, 
  0x18, 0x20, 0x00, 0x00, 0x80, 0x04, 0x00, 0x80, 0x04, 0x00, 0x00, 0x00, 
  0x00, 0x00, 0x20, 0x60, 0x74, 0x00, 0x00, 0x00, 0x00, 0x00, 0x00, 0x00, 
  0x00, 0x00, 0x00, 0x00, 0x04, 0x02, 0x00, 0x00, 0x48, 0x08, 0x00, 0x01, 
  0x00, 0x40, 0x00, 0x08, 0x00, 0x00, 0x08, 0x00, 0x14, 0x79, 0x00, 0x00, 
  0x00, 0x00, 0x00, 0x00, 0x00, 0x00, 0x00, 0x00, 0x00, 0x61, 0x81, 0x00, 
  0x00, 0x00, 0x00, 0x28, 0x40, 0x00, 0x00, 0x20, 0x20, 0x04, 0x10, 0x00, 
  0x00, 0x80, 0xFA, 0x00, 0x00, 0x00, 0x00, 0x00, 0x00, 0x00, 0x00, 0x00, 
  0x00, 0x00, 0x00, 0x25, 0x05, 0x11, 0x00, 0x00, 0x00, 0x20, 0x02, 0x00, 
  0x02, 0x00, 0x20, 0x00, 0x00, 0x00, 0x50, 0x79, 0x00, 0x00, 0x00, 0x00, 
  0x00, 0x00, 0x00, 0x00, 0x00, 0x00, 0x80, 0x80, 0xA2, 0x09, 0x10, 0x10, 
  0x40, 0x00, 0x00, 0x02, 0x80, 0x40, 0x00, 0x00, 0x00, 0x00, 0x02, 0x22, 
  0xF8, 0x00, 0x00, 0x00, 0x00, 0x00, 0x00, 0x00, 0x00, 0x00, 0x00, 0x00, 
  0x08, 0x08, 0x12, 0x02, 0x01, 0x00, 0x80, 0x04, 0x10, 0x04, 0x00, 0x00, 
  0x00, 0x01, 0x18, 0x00, 0xA0, 0x7A, 0x00, 0x00, 0x00, 0x00, 0x00, 0x00, 
  0x00, 0x00, 0x00, 0x00, 0x00, 0x20, 0x20, 0x12, 0x00, 0x02, 0x00, 0x00, 
  0x00, 0x20, 0x08, 0x00, 0x08, 0x84, 0x20, 0x00, 0x00, 0x40, 0x7C, 0x00, 
  0x00, 0x00, 0x00, 0x00, 0x00, 0x00, 0x00, 0x00, 0x00, 0x00, 0x00, 0x28, 
  0x85, 0x00, 0x00, 0x06, 0x04, 0x10, 0x00, 0x00, 0x88, 0x80, 0x00, 0x00, 
  0x00, 0x00, 0x10, 0xF9, 0x00, 0x00, 0x00, 0x00, 0x00, 0x00, 0x00, 0x00, 
  0x00, 0x00, 0x20, 0x80, 0x10, 0x2A, 0x00, 0x00, 0x00, 0x00, 0x01, 0x06, 
  0x00, 0x42, 0x00, 0x81, 0x00, 0x80, 0x80, 0x90, 0xF9, 0x00, 0x00, 0x00, 
  0x00, 0x00, 0x00, 0x00, 0x00, 0x00, 0x00, 0x00, 0x04, 0x82, 0x09, 0x06, 
  0x08, 0x10, 0x20, 0x00, 0x00, 0x00, 0x00, 0x00, 0x10, 0x20, 0x00, 0x04, 
  0x40, 0x7C, 0x00, 0x00, 0x00, 0x00, 0x00, 0x00, 0x00, 0x00, 0x00, 0x00, 
  0x00, 0x00, 0x40, 0x62, 0x80, 0x20, 0x20, 0x00, 0x02, 0x00, 0x01, 0x00, 
  0x80, 0x00, 0x00, 0x00, 0x00, 0xA0, 0xFA, 0x00, 0x00, 0x00, 0x00, 0x00, 
  0x00, 0x00, 0x00, 0x00, 0x00, 0x10, 0x20, 0x04, 0x01, 0x14, 0x00, 0x01, 
  0x01, 0x20, 0x20, 0x10, 0x00, 0x08, 0x00, 0x02, 0x12, 0x00, 0x20, 0xF8, 
  0x00, 0x00, 0x00, 0x00, 0x00, 0x00, 0x00, 0x00, 0x00, 0x00, 0x00, 0x41, 
  0x00, 0x80, 0x29, 0x01, 0x02, 0x01, 0x10, 0x00, 0x00, 0x4A, 0x00, 0x04, 
  0x00, 0x00, 0x00, 0xA0, 0xFB, 0x00, 0x00, 0x00, 0x00, 0x00, 0x00, 0x00, 
  0x00, 0x00, 0x00, 0x84, 0x00, 0x49, 0x1A, 0x00, 0x40, 0x80, 0x40, 0x00, 
  0x00, 0x02, 0x00, 0x04, 0x00, 0x00, 0x00, 0x01, 0x90, 0xF8, 0x00, 0x00, 
  0x00, 0x00, 0x00, 0x00, 0x00, 0x00, 0x00, 0x00, 0x00, 0x04, 0x00, 0xA1, 
  0x85, 0x18, 0x00, 0x08, 0x02, 0x46, 0x10, 0x00, 0x40, 0x20, 0x80, 0x00, 
  0x00, 0x00, 0xFE, 0x00, 0x00, 0x00, 0x00, 0x00, 0x00, 0x00, 0x00, 0x00, 
  0x00, 0xA8, 0x40, 0x20, 0x00, 0x20, 0x02, 0x04, 0x00, 0x40, 0x00, 0x00, 
  0x00, 0x00, 0x80, 0x08, 0x04, 0x00, 0x60, 0xF8, 0x00, 0x00, 0x00, 0x00, 
  0x00, 0x00, 0x00, 0x00, 0x00, 0x00, 0x86, 0x02, 0x40, 0x01, 0xA4, 0x20, 
  0x02, 0x00, 0x02, 0x10, 0x80, 0x00, 0x00, 0x00, 0x00, 0x40, 0x00, 0x90, 
  0xFD, 0x00, 0x00, 0x00, 0x00, 0x00, 0x00, 0x00, 0x00, 0x00, 0x00, 0x20, 
  0x20, 0x02, 0x84, 0x02, 0x02, 0x00, 0x82, 0x00, 0x00, 0x04, 0x10, 0x88, 
  0x00, 0x08, 0x00, 0x04, 0x40, 0xF9, 0x00, 0x00, 0x00, 0x00, 0x00, 0x00, 
  0x00, 0x00, 0x00, 0x00, 0x63, 0x01, 0x40, 0x10, 0x04, 0x8A, 0x20, 0x00, 
  0x80, 0x02, 0x00, 0x0A, 0x40, 0x82, 0x00, 0x01, 0x00, 0x60, 0xF8, 0x00, 
  0x00, 0x00, 0x00, 0x00, 0x00, 0x00, 0x00, 0x00, 0x00, 0x88, 0x84, 0x11, 
  0x01, 0x90, 0x20, 0x04, 0x42, 0x20, 0x80, 0x12, 0x80, 0x01, 0x00, 0x40, 
  0x00, 0x00, 0x08, 0xFE, 0x00, 0x00, 0x00, 0x00, 0x00, 0x00, 0x00, 0x00, 
  0x00, 0x00, 0x30, 0x94, 0x00, 0x00, 0x04, 0x80, 0x21, 0x04, 0x08, 0x00, 
  0x01, 0x00, 0x00, 0x00, 0x00, 0x01, 0x00, 0xC0, 0xF9, 0x00, 0x00, 0x00, 
  0x00, 0x00, 0x00, 0x00, 0x00, 0x00, 0xC0, 0x8D, 0x09, 0x48, 0x84, 0x40, 
  0x16, 0x40, 0x00, 0x20, 0x40, 0x00, 0x00, 0x00, 0x00, 0x02, 0x00, 0x00, 
  0x10, 0xFC, 0x00, 0x00, 0x00, 0x00, 0x00, 0x00, 0x00, 0x00, 0x00, 0x00, 
  0x84, 0x21, 0xA1, 0x01, 0x50, 0x01, 0x28, 0x00, 0x00, 0x00, 0x80, 0x08, 
  0x48, 0x00, 0x12, 0x00, 0x00, 0x20, 0xFE, 0x00, 0x00, 0x00, 0x00, 0x00, 
  0x00, 0x00, 0x00, 0x00, 0x40, 0x32, 0x8C, 0x00, 0x10, 0x01, 0x94, 0x02, 
  0x41, 0x01, 0x06, 0x10, 0x20, 0x00, 0x14, 0x00, 0x80, 0x00, 0xA8, 0xFC, 
  0x00, 0x00, 0x00, 0x00, 0x00, 0x00, 0x00, 0x00, 0x00, 0x40, 0x0C, 0x13, 
  0x80, 0x04, 0x04, 0x00, 0x0A, 0x04, 0x00, 0x08, 0x81, 0x00, 0x00, 0x00, 
  0x00, 0x80, 0x00, 0x50, 0xFD, 0x01, 0x00, 0x00, 0x00, 0x00, 0x00, 0x00, 
  0x00, 0x00, 0x10, 0x61, 0x48, 0x22, 0x40, 0x40, 0xAA, 0x50, 0x11, 0x40, 
  0x00, 0x00, 0x10, 0x80, 0x00, 0x04, 0x00, 0x00, 0x10, 0xFA, 0x01, 0x00, 
  0x00, 0x00, 0x00, 0x00, 0x00, 0x00, 0x00, 0x50, 0x2A, 0xA9, 0x9C, 0x02, 
  0x00, 0x28, 0x40, 0x40, 0x04, 0x80, 0x10, 0x00, 0x02, 0x80, 0x20, 0x00, 
  0x00, 0xC0, 0xFC, 0x00, 0x00, 0x00, 0x00, 0x00, 0x00, 0x00, 0x00, 0x00, 
  0x80, 0x92, 0x24, 0x01, 0x18, 0x01, 0x00, 0x0A, 0x09, 0x41, 0x02, 0x00, 
  0x08, 0x04, 0x06, 0x00, 0x10, 0x00, 0x14, 0xFD, 0x01, 0x00, 0x00, 0x00, 
  0x00, 0x00, 0x00, 0x00, 0x00, 0x88, 0x2C, 0x4A, 0x46, 0x40, 0x10, 0x00, 
  0x40, 0x00, 0x00, 0x01, 0x08, 0x40, 0x00, 0x00, 0x00, 0x00, 0x00, 0x98, 
  0xFC, 0x01, 0x00, 0x00, 0x00, 0x00, 0x00, 0x00, 0x00, 0x00, 0x54, 0xC1, 
  0x28, 0x90, 0x02, 0x02, 0x42, 0x06, 0x48, 0x98, 0x10, 0x42, 0x08, 0x04, 
  0x00, 0x00, 0x00, 0x00, 0x20, 0xFE, 0x00, 0x00, 0x00, 0x00, 0x00, 0x00, 
  0x00, 0x00, 0x00, 0x24, 0x1A, 0xC3, 0x65, 0x20, 0x40, 0x00, 0xA2, 0xA0, 
  0x00, 0x84, 0x00, 0x01, 0x20, 0x00, 0x10, 0x00, 0x00, 0x60, 0xFE, 0x01, 
  0x00, 0x00, 0x00, 0x00, 0x00, 0x00, 0x00, 0x00, 0x88, 0x52, 0x14, 0x51, 
  0x02, 0x09, 0x90, 0x00, 0x02, 0x01, 0x00, 0x10, 0x10, 0x00, 0x14, 0x02, 
  0x02, 0x00, 0x0C, 0xF9, 0x01, 0x00, 0x00, 0x00, 0x00, 0x00, 0x00, 0x00, 
  0x00, 0x45, 0x64, 0x61, 0x58, 0x80, 0x10, 0x02, 0x00, 0x08, 0x01, 0x00, 
  0x81, 0x00, 0x21, 0x08, 0x00, 0x08, 0x00, 0xD0, 0xFE, 0x01, 0x00, 0x00, 
  0x00, 0x00, 0x00, 0x00, 0x00, 0x00, 0xA2, 0x89, 0x0C, 0x82, 0x29, 0x08, 
  0x20, 0x68, 0x01, 0x48, 0x22, 0x00, 0x02, 0x08, 0x00, 0x00, 0x00, 0x00, 
  0x08, 0xFD, 0x01, 0x00, 0x00, 0x00, 0x00, 0x00, 0x00, 0x00, 0x00, 0x9D, 
  0x19, 0x96, 0xA4, 0x08, 0x02, 0x00, 0x20, 0x80, 0x20, 0x00, 0x10, 0x60, 
  0x20, 0x01, 0x18, 0x00, 0x00, 0x6A, 0xFC, 0x01, 0x00, 0x00, 0x00, 0x00, 
  0x00, 0x00, 0x00, 0x80, 0x40, 0x62, 0x91, 0x53, 0x23, 0x20, 0x84, 0x01, 
  0x14, 0x80, 0x48, 0x08, 0x00, 0x00, 0x40, 0x00, 0x04, 0x00, 0x20, 0xFD, 
  0x01, 0x00, 0x00, 0x00, 0x00, 0x00, 0x00, 0x00, 0x00, 0xB5, 0x9C, 0x28, 
  0x52, 0x90, 0x60, 0x06, 0x80, 0x00, 0x01, 0x40, 0x80, 0x00, 0x00, 0x04, 
  0x00, 0x00, 0x00, 0x90, 0xFC, 0x01, 0x00, 0x00, 0x00, 0x00, 0x00, 0x00, 
  0x00, 0x60, 0x48, 0x21, 0xA2, 0xA4, 0x06, 0x01, 0x10, 0x04, 0x4A, 0x18, 
  0x09, 0x00, 0x02, 0x00, 0x80, 0x00, 0x01, 0x00, 0x94, 0xFD, 0x01, 0x00, 
  0x00, 0x00, 0x00, 0x00, 0x00, 0x00, 0x40, 0x22, 0x66, 0x46, 0x53, 0xD0, 
  0x28, 0x84, 0x02, 0x64, 0x40, 0x00, 0x02, 0x20, 0x46, 0x00, 0x10, 0x00, 
  0x00, 0x04, 0xFC, 0x01, 0x00, 0x00, 0x00, 0x00, 0x00, 0x00, 0x00, 0x10, 
  0x95, 0x92, 0x98, 0x28, 0x0A, 0x02, 0x00, 0x44, 0x00, 0x02, 0x20, 0x10, 
  0x02, 0x00, 0x08, 0x01, 0x00, 0x00, 0x68, 0xFF, 0x01, 0x00, 0x00, 0x00, 
  0x00, 0x00, 0x00, 0x00, 0x90, 0x54, 0xB6, 0x0C, 0x5A, 0xA6, 0x00, 0x10, 
  0x00, 0x00, 0x09, 0x08, 0x00, 0x08, 0x40, 0x00, 0x80, 0x00, 0x00, 0x18, 
  0xFC, 0x03, 0x00, 0x00, 0x00, 0x00, 0x00, 0x00, 0x00, 0x10, 0x89, 0x01, 
  0x61, 0x20, 0x00, 0x2B, 0x04, 0x10, 0x98, 0x90, 0x80, 0x84, 0x80, 0x00, 
  0x04, 0x00, 0x00, 0x00, 0xC2, 0xFE, 0x01, 0x00, 0x00, 0x00, 0x00, 0x00, 
  0x00, 0x00, 0x80, 0x26, 0x6C, 0x3A, 0x99, 0x59, 0x60, 0x80, 0x49, 0x01, 
  0x00, 0x01, 0x01, 0x00, 0x14, 0x44, 0x01, 0x00, 0x00, 0x26, 0xFF, 0x03, 
  0x00, 0x00, 0x00, 0x00, 0x00, 0x00, 0x00, 0x5C, 0xD5, 0x82, 0x82, 0xA9, 
  0x10, 0x09, 0x0A, 0x10, 0x08, 0x24, 0x24, 0x10, 0x11, 0x00, 0x00, 0x00, 
  0x00, 0x00, 0x48, 0xFC, 0x01, 0x00, 0x00, 0x00, 0x00, 0x00, 0x00, 0x00, 
  0x80, 0x50, 0x94, 0x6C, 0x14, 0x23, 0x10, 0x20, 0x02, 0x00, 0x50, 0x00, 
  0x28, 0x00, 0x00, 0x00, 0x20, 0x00, 0x00, 0x24, 0xFE, 0x03, 0x00, 0x00, 
  0x00, 0x00, 0x00, 0x00, 0x00, 0x36, 0xA6, 0x63, 0x81, 0x6A, 0xA8, 0x8A, 
  0x02, 0x80, 0x92, 0x02, 0x24, 0x01, 0x94, 0x02, 0x20, 0x00, 0x00, 0x00, 
  0xA5, 0xFE, 0x01, 0x00, 0x00, 0x00, 0x00, 0x00, 0x00, 0x00, 0xA0, 0x39, 
  0x0A, 0x1A, 0x09, 0x88, 0x18, 0x04, 0x08, 0x04, 0x20, 0x00, 0x48, 0x00, 
  0x40, 0x02, 0x02, 0x00, 0x00, 0x18, 0xFD, 0x03, 0x00, 0x00, 0x00, 0x00, 
  0x00, 0x00, 0x00, 0x55, 0x46, 0xB4, 0x52, 0x58, 0x13, 0xC3, 0x12, 0x20, 
  0x00, 0x04, 0x8A, 0x00, 0x01, 0x08, 0x08, 0x00, 0x00, 0x00, 0xC3, 0xFD, 
  0x03, 0x00, 0x00, 0x00, 0x00, 0x00, 0x00, 0x00, 0x6C, 0x46, 0x99, 0x24, 
  0x35, 0x61, 0x80, 0x8C, 0x49, 0x02, 0x41, 0x00, 0x01, 0x01, 0x01, 0x84, 
  0x08, 0x00, 0x00, 0x0D, 0xFE, 0x03, 0x00, 0x00, 0x00, 0x00, 0x00, 0x00, 
  0x00, 0x91, 0x39, 0x66, 0x96, 0x89, 0x08, 0x15, 0x12, 0x00, 0x40, 0x08, 
  0x20, 0x20, 0x20, 0x10, 0x00, 0x00, 0x00, 0x00, 0x60, 0xFE, 0x03, 0x00, 
  0x00, 0x00, 0x00, 0x00, 0x00, 0x80, 0x4A, 0xA6, 0x09, 0x90, 0x84, 0xBA, 
  0x40, 0xA8, 0x91, 0x99, 0x20, 0x89, 0x04, 0x00, 0x08, 0x01, 0x04, 0x00, 
  0x00, 0x4A, 0xFD, 0x03, 0x00, 0x00, 0x00, 0x00, 0x00, 0x00, 0x80, 0x92, 
  0x50, 0xD2, 0x4B, 0x3A, 0x02, 0x2A, 0x01, 0x08, 0x00, 0x00, 0x00, 0x40, 
  0x04, 0x00, 0x20, 0x00, 0x00, 0x00, 0x92, 0xFE, 0x03, 0x00, 0x00, 0x00, 
  0x00, 0x00, 0x00, 0xA0, 0x4A, 0xD5, 0x4A, 0x56, 0x86, 0x62, 0x38, 0x94, 
  0x20, 0x08, 0x15, 0x10, 0x02, 0x80, 0x80, 0x20, 0x00, 0x00, 0x00, 0x82, 
  0xFE, 0x03, 0x00, 0x00, 0x00, 0x00, 0x00, 0x00, 0x00, 0xB4, 0x2A, 0x25, 
  0x10, 0x29, 0x0A, 0x42, 0x01, 0x09, 0x01, 0x80, 0x84, 0x20, 0x02, 0x0A, 
  0x00, 0x00, 0x00, 0x00, 0x39, 0xFE, 0x03, 0x00, 0x00, 0x00, 0x00, 0x00, 
  0x00, 0x60, 0x6A, 0x8A, 0x94, 0xC9, 0x64, 0x54, 0x11, 0x08, 0x82, 0x80, 
  0x00, 0x06, 0x00, 0x10, 0x00, 0x02, 0x00, 0x00, 0x00, 0x61, 0xFE, 0x03, 
  0x00, 0x00, 0x00, 0x00, 0x00, 0x00, 0x20, 0x15, 0x55, 0x69, 0x26, 0x4A, 
  0x11, 0x85, 0x61, 0x20, 0x14, 0x28, 0x20, 0x52, 0x08, 0x10, 0x00, 0x01, 
  0x00, 0x00, 0x0C, 0xFE, 0x07, 0x00, 0x00, 0x00, 0x00, 0x00, 0x00, 0x90, 
  0x95, 0xD4, 0x2A, 0x64, 0x1B, 0x89, 0x94, 0x00, 0x0A, 0x00, 0x41, 0x08, 
  0xA2, 0x04, 0x40, 0x00, 0x00, 0x00, 0x00, 0x94, 0xFE, 0x03, 0x00, 0x00, 
  0x00, 0x00, 0x00, 0x00, 0x10, 0x6A, 0x29, 0xD4, 0x83, 0x44, 0x29, 0x11, 
  0x5A, 0x40, 0x42, 0x04, 0x82, 0x00, 0xA0, 0x01, 0x04, 0x00, 0x00, 0x80, 
  0x45, 0xFF, 0x03, 0x00, 0x00, 0x00, 0x00, 0x00, 0x00, 0xC8, 0xB9, 0x86, 
  0x45, 0x1A, 0xA0, 0x40, 0xA5, 0x82, 0x50, 0x26, 0x00, 0x24, 0x40, 0x80, 
  0x18, 0x60, 0x00, 0x00, 0x00, 0xA0, 0xFE, 0x03, 0x00, 0x00, 0x00, 0x00, 
  0x00, 0x00, 0x58, 0x44, 0x59, 0x2A, 0x64, 0x2B, 0x36, 0x00, 0x18, 0x0A, 
  0x40, 0x12, 0x00, 0x02, 0x04, 0x00, 0x01, 0x00, 0x00, 0x00, 0x2B, 0xFE, 
  0x03, 0x00, 0x00, 0x00, 0x00, 0x00, 0x00, 0xA4, 0x5A, 0xA6, 0xAB, 0xC9, 
  0x52, 0x44, 0x1C, 0x06, 0x00, 0x40, 0x80, 0x24, 0x10, 0x00, 0x80, 0x20, 
  0x00, 0x00, 0x00, 0x50, 0xFE, 0x07, 0x00, 0x00, 0x00, 0x00, 0x00, 0x00, 
  0x2A, 0xA5, 0x99, 0x64, 0x16, 0x95, 0x53, 0x41, 0x50, 0x9A, 0x06, 0x16, 
  0x00, 0x08, 0x11, 0x02, 0x00, 0x00, 0x00, 0x80, 0x96, 0xFE, 0x07, 0x00, 
  0x00, 0x00, 0x00, 0x00, 0x00, 0x51, 0x12, 0x44, 0x91, 0xA0, 0x4C, 0x28, 
  0xA1, 0x04, 0x00, 0x90, 0x04, 0x01, 0x82, 0x00, 0x10, 0x01, 0x00, 0x00, 
  0x40, 0x02, 0xFF, 0x07, 0x00, 0x00, 0x00, 0x00, 0x00, 0x00, 0xAA, 0x6D, 
  0x9A, 0x2A, 0x2B, 0x11, 0x8A, 0x8C, 0x69, 0x95, 0x02, 0x40, 0x88, 0x08, 
  0x88, 0x04, 0x00, 0x00, 0x00, 0x00, 0x69, 0xFE, 0x07, 0x00, 0x00, 0x00, 
  0x00, 0x00, 0x00, 0xB9, 0x95, 0xA6, 0xA6, 0x92, 0x26, 0x8A, 0x0C, 0x05, 
  0x40, 0x12, 0x04, 0x44, 0x08, 0x20, 0x00, 0x10, 0x00, 0x00, 0x80, 0x18, 
  0xFE, 0x07, 0x00, 0x00, 0x00, 0x00, 0x00, 0x80, 0x49, 0x6A, 0x49, 0x19, 
  0xA6, 0xC9, 0x28, 0x51, 0xD0, 0x16, 0x80, 0x41, 0x02, 0x82, 0x04, 0x21, 
  0x00, 0x00, 0x00, 0x80, 0xC3, 0xFF, 0x07, 0x00, 0x00, 0x00, 0x00, 0x00, 
  0x40, 0xA4, 0xB5, 0x96, 0x42, 0x29, 0x10, 0x81, 0x04, 0x06, 0x60, 0x52, 
  0x20, 0x04, 0x04, 0x00, 0x08, 0x00, 0x00, 0x00, 0x00, 0x28, 0xFE, 0x07, 
  0x00, 0x00, 0x00, 0x00, 0x00, 0x80, 0x5A, 0x4A, 0xA9, 0xB9, 0x94, 0x56, 
  0x36, 0x61, 0x90, 0x0A, 0x04, 0x45, 0x80, 0x10, 0x4A, 0x80, 0x02, 0x00, 
  0x00, 0x80, 0x4A, 0xFF, 0x07, 0x00, 0x00, 0x00, 0x00, 0x00, 0x20, 0xAA, 
  0x62, 0x5A, 0x25, 0x2D, 0x4B, 0x86, 0x6C, 0x44, 0x8A, 0x09, 0x04, 0x52, 
  0x44, 0x08, 0x08, 0x02, 0x00, 0x00, 0x00, 0x23, 0xFF, 0x07, 0x00, 0x00, 
  0x00, 0x00, 0x00, 0x60, 0x55, 0x95, 0xA5, 0x9A, 0xC0, 0x90, 0x21, 0x01, 
  0x11, 0x10, 0x40, 0x50, 0x08, 0x00, 0x10, 0x20, 0x00, 0x00, 0x00, 0xC0, 
  0xA8, 0xFF, 0x07, 0x00, 0x00, 0x00, 0x00, 0x00, 0x50, 0xBA, 0x6A, 0x81, 
  0x62, 0x52, 0x96, 0x68, 0x51, 0x84, 0xA2, 0x58, 0x0A, 0x80, 0x19, 0x00, 
  0x12, 0x00, 0x00, 0x00, 0x00, 0x48, 0xFE, 0x07, 0x00, 0x00, 0x00, 0x00, 
  0x00, 0x20, 0x45, 0x95, 0x5A, 0x95, 0x2D, 0x25, 0x4A, 0x14, 0x13, 0x04, 
  0x01, 0x20, 0x0A, 0x80, 0x44, 0x00, 0x00, 0x00, 0x00, 0x40, 0x23, 0xFF, 
  0x07, 0x00, 0x00, 0x00, 0x00, 0x00, 0x50, 0x55, 0x55, 0x95, 0xD4, 0x4A, 
  0x64, 0x2B, 0x0A, 0x02, 0x15, 0x50, 0x92, 0x48, 0x00, 0x10, 0x09, 0x00, 
  0x00, 0x00, 0x20, 0x8A, 0xFE, 0x07, 0x00, 0x00, 0x00, 0x00, 0x00, 0x98, 
  0xAA, 0xAA, 0x5A, 0x2A, 0x95, 0x19, 0x90, 0xA8, 0xA8, 0x84, 0x01, 0x00, 
  0x00, 0x42, 0x81, 0x80, 0x01, 0x00, 0x00, 0x80, 0x24, 0xFF, 0x07, 0x00, 
  0x00, 0x00, 0x00, 0x00, 0x48, 0x55, 0xA5, 0xA5, 0x8A, 0x94, 0x86, 0x96, 
  0x91, 0x0A, 0x50, 0xAA, 0x09, 0x10, 0x15, 0x00, 0x00, 0x00, 0x00, 0x00, 
  0x60, 0x53, 0xFF, 0x0F, 0x00, 0x00, 0x00, 0x00, 0x00, 0xAC, 0xAA, 0x5A, 
  0x52, 0x55, 0x4A, 0x62, 0x48, 0x46, 0x52, 0x05, 0x00, 0x90, 0x88, 0x80, 
  0x24, 0x44, 0x00, 0x00, 0x00, 0x00, 0x24, 0xFF, 0x07, 0x00, 0x00, 0x00, 
  0x00, 0x00, 0xA6, 0x55, 0xA5, 0x5A, 0x6A, 0x95, 0x4D, 0x51, 0x42, 0x82, 
  0x50, 0x05, 0x24, 0x09, 0x04, 0x04, 0x02, 0x00, 0x00, 0x00, 0x80, 0x46, 
  0xFF, 0x07, 0x00, 0x00, 0x00, 0x00, 0x00, 0x52, 0xAA, 0x5A, 0xA5, 0x94, 
  0x62, 0x30, 0x16, 0x5C, 0x3A, 0x1A, 0x60, 0x80, 0x00, 0x01, 0x20, 0x00, 
  0x00, 0x00, 0x00, 0x80, 0x50, 0xFF, 0x0F, 0x00, 0x00, 0x00, 0x00, 0x00, 
  0xA9, 0x55, 0xA1, 0x5A, 0x45, 0x1A, 0xA6, 0xC4, 0x11, 0x44, 0x20, 0x10, 
  0x02, 0x00, 0x10, 0x82, 0x10, 0x00, 0x00, 0x00, 0x10, 0x19, 0xFF, 0x07, 
  0x00, 0x00, 0x00, 0x00, 0x00, 0x52, 0xAA, 0x56, 0x95, 0x9A, 0xA5, 0x89, 
  0x19, 0x45, 0x21, 0x85, 0x46, 0x24, 0x99, 0x84, 0x08, 0x02, 0x00, 0x00, 
  0x00, 0x60, 0x4A, 0xFF, 0x0F, 0x00, 0x00, 0x00, 0x00, 0x00, 0x91, 0xAA, 
  0x55, 0x2A, 0x92, 0x4A, 0x64, 0x19, 0x18, 0x13, 0x00, 0x82, 0x8A, 0x20, 
  0x22, 0x10, 0x08, 0x00, 0x00, 0x00, 0x20, 0x30, 0xFF, 0x0F, 0x00, 0x00, 
  0x00, 0x00, 0x80, 0x6C, 0x55, 0xAA, 0x55, 0x4D, 0x94, 0x09, 0xC4, 0x42, 
  0x84, 0xA5, 0x14, 0x12, 0x85, 0x00, 0x81, 0x00, 0x00, 0x00, 0x00, 0xC0, 
  0x86, 0xFF, 0x07, 0x00, 0x00, 0x00, 0x00, 0x40, 0xDE, 0xAA, 0x55, 0xAA, 
  0x96, 0xA5, 0x96, 0x16, 0x25, 0x22, 0x18, 0x90, 0xA0, 0x04, 0x88, 0x00, 
  0x00, 0x00, 0x00, 0x00, 0x20, 0x84, 0xFF, 0x0F, 0x00, 0x00, 0x00, 0x00, 
  0xC0, 0xA2, 0x55, 0xAA, 0x55, 0x69, 0x4A, 0x62, 0x51, 0xA4, 0xA8, 0x8A, 
  0x05, 0x04, 0xA1, 0x22, 0x28, 0x04, 0x00, 0x00, 0x00, 0x50, 0x39, 0xFF, 
  0x0F, 0x00, 0x00, 0x00, 0x00, 0x50, 0x5A, 0xA6, 0x55, 0x96, 0xD2, 0x56, 
  0x99, 0x44, 0x0A, 0x11, 0x48, 0x05, 0x01, 0x24, 0x02, 0x02, 0x00, 0x00, 
  0x00, 0x00, 0xC0, 0x86, 0xFF, 0x0F, 0x00, 0x00, 0x00, 0x00, 0x60, 0xA5, 
  0x59, 0xAA, 0xA9, 0x29, 0xA9, 0x46, 0x96, 0x69, 0x59, 0x12, 0xA0, 0x28, 
  0x00, 0x94, 0x18, 0x04, 0x00, 0x00, 0x00, 0x10, 0x21, 0xFF, 0x0F, 0x00, 
  0x00, 0x00, 0x00, 0x10, 0x5A, 0xA5, 0x55, 0x52, 0x95, 0xA6, 0x99, 0x59, 
  0x20, 0x00, 0x88, 0x14, 0xA8, 0x09, 0x02, 0x02, 0x02, 0x00, 0x00, 0x00, 
  0x90, 0x68, 0xFF, 0x0F, 0x00, 0x00, 0x00, 0x00, 0xA8, 0xAD, 0x5A, 0xAA, 
  0xA5, 0x2A, 0x49, 0x94, 0x22, 0x96, 0x66, 0x13, 0x82, 0x01, 0x90, 0x40, 
  0x90, 0x00, 0x00, 0x00, 0x00, 0x40, 0x8A, 0xFF, 0x0F, 0x00, 0x00, 0x00, 
  0x00, 0x48, 0x69, 0x95, 0x55, 0xA5, 0x59, 0xB6, 0x92, 0xD4, 0x22, 0x61, 
  0x28, 0x41, 0x04, 0x24, 0x00, 0x00, 0x01, 0x00, 0x00, 0x00, 0xC0, 0xB0, 
  0xFF, 0x0F, 0x00, 0x00, 0x00, 0x00, 0xA4, 0x96, 0xEA, 0xAA, 0x52, 0xA6, 
  0x49, 0x59, 0x06, 0xCD, 0x0C, 0x49, 0x28, 0x62, 0x02, 0x5A, 0x0A, 0x00, 
  0x00, 0x00, 0x00, 0x10, 0x06, 0xFF, 0x0F, 0x00, 0x00, 0x00, 0x00, 0x46, 
  0x5B, 0x59, 0x55, 0xA9, 0x9A, 0x12, 0x46, 0x69, 0x54, 0x92, 0x10, 0x02, 
  0x00, 0x80, 0x02, 0x88, 0x00, 0x00, 0x00, 0x00, 0x98, 0x63, 0xFF, 0x0F, 
  0x00, 0x00, 0x00, 0x00, 0xB2, 0xA5, 0xA5, 0xAA, 0x56, 0x25, 0xA9, 0x92, 
  0x12, 0x12, 0x95, 0x86, 0xA4, 0x5A, 0x24, 0x20, 0x20, 0x00, 0x00, 0x00, 
  0x00, 0x20, 0x88, 0xFF, 0x0F, 0x00, 0x00, 0x00, 0x00, 0x5D, 0xB5, 0x5A, 
  0x5B, 0x95, 0x96, 0xAA, 0x5A, 0x92, 0xC4, 0x08, 0x48, 0x8C, 0x40, 0x01, 
  0x09, 0x22, 0x00, 0x00, 0x00, 0x00, 0x50, 0xD1, 0xFF, 0x0F, 0x00, 0x00, 
  0x00, 0x00, 0xA2, 0x6A, 0xA5, 0xA5, 0x6A, 0x69, 0x55, 0x26, 0x55, 0x15, 
  0x52, 0x53, 0x31, 0x05, 0x28, 0x90, 0x00, 0x00, 0x00, 0x00, 0x00, 0x14, 
  0x0C, 0xFF, 0x1F, 0x00, 0x00, 0x00, 0x00, 0x79, 0xA5, 0x56, 0x5A, 0x55, 
  0xB4, 0x18, 0xA9, 0x4C, 0x98, 0x19, 0x10, 0x05, 0x44, 0x98, 0x00, 0x00, 
  0x00, 0x00, 0x00, 0x00, 0xC0, 0xC2, 0xFF, 0x0F, 0x00, 0x00, 0x00, 0x80, 
  0x52, 0x56, 0xAB, 0xA5, 0xAA, 0x4A, 0xAA, 0x52, 0x92, 0x23, 0xC4, 0x86, 
  0x50, 0x32, 0x01, 0x49, 0x21, 0x00, 0x00, 0x00, 0x00, 0x18, 0x55, 0xFF, 
  0x1F, 0x00, 0x00, 0x00, 0x80, 0xAC, 0xAB, 0x65, 0x56, 0x55, 0x5A, 0xA9, 
  0x65, 0x24, 0x4A, 0x22, 0x14, 0x18, 0x40, 0x13, 0x44, 0x02, 0x00, 0x00, 
  0x00, 0x00, 0x60, 0xC4, 0xFF, 0x0F, 0x00, 0x00, 0x00, 0x60, 0x55, 0x55, 
  0x9A, 0xA9, 0xAA, 0xA5, 0x16, 0x98, 0xC3, 0x58, 0x4A, 0x81, 0x81, 0x2A, 
  0x84, 0x00, 0x00, 0x00, 0x00, 0x00, 0x00, 0x0C, 0x92, 0xFF, 0x1B, 0x00, 
  0x00, 0x00, 0x80, 0xA8, 0x6B, 0xA5, 0x5A, 0x55, 0x6A, 0x55, 0x4A, 0x5A, 
  0x83, 0x31, 0x25, 0x14, 0x01, 0x60, 0x26, 0x09, 0x00, 0x00, 0x00, 0x00, 
  0x94, 0x8C, 0xFF, 0x1F, 0x00, 0x00, 0x00, 0x50, 0x57, 0xD4, 0x5B, 0xA5, 
  0xAA, 0x94, 0xAA, 0x95, 0x25, 0x34, 0x8C, 0xA4, 0x43, 0xA8, 0x05, 0xA0, 
  0x00, 0x00, 0x00, 0x00, 0x00, 0x90, 0xB1, 0xFF, 0x1B, 0x00, 0x00, 0x00, 
  0xA0, 0xE9, 0x69, 0x96, 0x5A, 0x55, 0x25, 0xB4, 0x6A, 0x94, 0x49, 0x11, 
  0x12, 0xA0, 0x12, 0x60, 0x08, 0x00, 0x00, 0x00, 0x00, 0x00, 0x28, 0xC1, 
  0xFF, 0x0F, 0x00, 0x00, 0x00, 0x98, 0x96, 0x96, 0xE5, 0xA5, 0xAA, 0x5A, 
  0x4B, 0x96, 0x69, 0x54, 0xC6, 0x44, 0x05, 0x88, 0x08, 0x12, 0x02, 0x00, 
  0x00, 0x00, 0x00, 0x92, 0xAC, 0xFF, 0x1B, 0x00, 0x00, 0x00, 0x40, 0x5D, 
  0x6D, 0x5A, 0xEA, 0x55, 0xA5, 0x96, 0x25, 0x96, 0x95, 0x24, 0x33, 0xD0, 
  0x50, 0x05, 0x00, 0x02, 0x00, 0x00, 0x00, 0x00, 0x05, 0xD2, 0xFF, 0x1F, 
  0x00, 0x00, 0x00, 0x98, 0xAA, 0x9A, 0xA5, 0x56, 0xAA, 0x5A, 0x49, 0x52, 
  0x25, 0x49, 0x49, 0x88, 0x0A, 0x05, 0x50, 0x4A, 0x00, 0x00, 0x00, 0x00, 
  0x00, 0xD4, 0xC4, 0xFF, 0x1B, 0x00, 0x00, 0x00, 0x88, 0xBA, 0xA5, 0xA5, 
  0xA9, 0x55, 0x55, 0x52, 0x54, 0x4B, 0xB2, 0x6D, 0x86, 0x88, 0x01, 0x2A, 
  0x08, 0x00, 0x00, 0x00, 0x00, 0x00, 0x48, 0xF2, 0xFF, 0x1F, 0x00, 0x00, 
  0x00, 0x66, 0xCD, 0x5A, 0x5A, 0x56, 0xAA, 0xAA, 0xA5, 0x29, 0x94, 0x05, 
  0x80, 0x31, 0x23, 0xB4, 0x80, 0x51, 0x00, 0x00, 0x00, 0x00, 0x00, 0x92, 
  0xC5, 0xFF, 0x17, 0x00, 0x00, 0x00, 0xD4, 0x16, 0xEB, 0xA5, 0xBD, 0x55, 
  0x55, 0x4A, 0xAA, 0x61, 0x6C, 0x16, 0x68, 0x10, 0x08, 0x22, 0x00, 0x01, 
  0x00, 0x00, 0x00, 0x00, 0x15, 0xC2, 0xFF, 0x17, 0x00, 0x00, 0x00, 0x24, 
  0xE8, 0x94, 0x5A, 0x4A, 0xAA, 0xAA, 0xB5, 0x55, 0x2A, 0x42, 0x61, 0x0A, 
  0x56, 0x92, 0x84, 0x85, 0x00, 0x00, 0x00, 0x00, 0x00, 0xC4, 0xD8, 0xFF, 
  0x1E, 0x00, 0x00, 0x00, 0x18, 0x29, 0x5B, 0xDB, 0x5A, 0xA5, 0x55, 0x80, 
  0x9D, 0xAA, 0x92, 0x1D, 0xC4, 0x24, 0x44, 0x28, 0x02, 0x00, 0x00, 0x00, 
  0x00, 0x00, 0x0A, 0xC5, 0xFF, 0x0F, 0x00, 0x00, 0x00, 0xD0, 0xA6, 0xA6, 
  0xA5, 0xAD, 0x5A, 0xAA, 0xBF, 0x42, 0x49, 0x2C, 0xC0, 0x15, 0xA5, 0x15, 
  0x01, 0x40, 0x00, 0x00, 0x00, 0x00, 0x80, 0x68, 0xE0, 0xFF, 0x37, 0x00, 
  0x00, 0x00, 0x00, 0x5B, 0x90, 0x5A, 0x56, 0xAA, 0x55, 0x79, 0x95, 0xD4, 
  0x65, 0x16, 0x12, 0x42, 0x52, 0x24, 0x21, 0x00, 0x00, 0x00, 0x00, 0x00, 
  0x23, 0xEA, 0xBF, 0x3F, 0x00, 0x00, 0x00, 0x00, 0xA0, 0x2B, 0xA5, 0xA9, 
  0x55, 0xAA, 0x85, 0x6A, 0x29, 0x92, 0x52, 0xC9, 0x18, 0x08, 0xA3, 0x08, 
  0x00, 0x00, 0x00, 0x00, 0x00, 0x94, 0xE8, 0xEF, 0x09, 0x00, 0x00, 0x00, 
  0x00, 0x00, 0x56, 0x90, 0x5A, 0xAB, 0x55, 0xAA, 0x8A, 0x4A, 0x2A, 0x4B, 
  0x44, 0x82, 0x86, 0x20, 0x32, 0x00, 0x00, 0x00, 0x00, 0x80, 0x18, 0xF1, 
  0xFF, 0x1D, 0x00, 0x00, 0x00, 0x00, 0x00, 0xA0, 0xA7, 0xA5, 0x55, 0xAA, 
  0x15, 0x65, 0xB4, 0x61, 0x90, 0x52, 0x2A, 0x20, 0x49, 0x00, 0x00, 0x00, 
  0x00, 0x00, 0x00, 0xC3, 0xE9, 0xFF, 0x17, 0x00, 0x00, 0x00, 0x00, 0x00, 
  0x80, 0x59, 0x90, 0xAA, 0x55, 0x5A, 0x56, 0x69, 0x95, 0x96, 0x8C, 0xC4, 
  0x8B, 0x01, 0x0A, 0x00, 0x00, 0x00, 0x00, 0x40, 0x66, 0xE0, 0x6F, 0x17, 
  0x00, 0x00, 0x00, 0x00, 0x00, 0x00, 0xA0, 0x4B, 0x55, 0x2A, 0xA5, 0xA9, 
  0x96, 0x2A, 0x29, 0x31, 0x11, 0x20, 0x54, 0x00, 0x00, 0x00, 0x00, 0x00, 
  0x00, 0x10, 0xE6, 0xF7, 0x1D, 0x00, 0x00, 0x00, 0x00, 0x00, 0x00, 0x00, 
  0x6E, 0xD0, 0xD5, 0x5A, 0x65, 0x25, 0xA5, 0x52, 0x81, 0x1C, 0x31, 0xAA, 
  0x09, 0x00, 0x00, 0x00, 0x00, 0x80, 0xC3, 0xF1, 0xFF, 0x15, 0x00, 0x00, 
  0x00, 0x00, 0x00, 0x00, 0x00, 0x90, 0x16, 0xAA, 0xA5, 0x9A, 0x56, 0x59, 
  0xA4, 0x2C, 0xC1, 0x4C, 0x00, 0x00, 0x00, 0x00, 0x00, 0x00, 0x80, 0x18, 
  0xEC, 0x6F, 0x3F, 0x00, 0x00, 0x00, 0x00, 0x00, 0x00, 0x00, 0x00, 0x6D, 
  0x59, 0xAA, 0x69, 0x5A, 0x42, 0x39, 0x65, 0x21, 0x20, 0x22, 0x00, 0x00, 
  0x00, 0x00, 0x00, 0x00, 0x15, 0xF2, 0xF7, 0x17, 0x00, 0x00, 0x00, 0x00, 
  0x00, 0x00, 0x00, 0x00, 0x90, 0x02, 0x55, 0x94, 0x24, 0xA9, 0x86, 0x91, 
  0x4C, 0x8A, 0x4A, 0x02, 0x00, 0x00, 0x00, 0x00, 0x40, 0xC4, 0xE4, 0xFF, 
  0x36, 0x00, 0x00, 0x00, 0x00, 0x00, 0x00, 0x00, 0x00, 0x00, 0xAD, 0xB0, 
  0x95, 0xAA, 0x66, 0x16, 0x24, 0xB5, 0x22, 0x23, 0x00, 0x00, 0x00, 0x00, 
  0x00, 0x00, 0x22, 0xF2, 0xB7, 0x27, 0x00, 0x00, 0x00, 0x00, 0x00, 0x00, 
  0x00, 0x00, 0x00, 0x50, 0x46, 0xA8, 0x51, 0x99, 0xC9, 0x65, 0x01, 0x8A, 
  0x04, 0x02, 0x00, 0x00, 0x00, 0x00, 0xC0, 0x49, 0xF4, 0xFF, 0x36, 0x00, 
  0x00, 0x00, 0x00, 0x00, 0x00, 0x00, 0x00, 0x00, 0x00, 0x1D, 0xC2, 0x55, 
  0x26, 0x50, 0x48, 0x5C, 0x34, 0x52, 0x00, 0x00, 0x00, 0x00, 0x00, 0x40, 
  0x68, 0xE3, 0xEE, 0x55, 0x00, 0x00, 0x00, 0x00, 0x00, 0x00, 0x00, 0x00, 
  0x00, 0x00, 0xA0, 0x15, 0x2A, 0x50, 0x16, 0x93, 0x41, 0x89, 0x08, 0x00, 
  0x00, 0x00, 0x00, 0x00, 0x20, 0x13, 0xF8, 0xBF, 0x3F, 0x00, 0x00, 0x00, 
  0x00, 0x00, 0x00, 0x00, 0x00, 0x00, 0x00, 0x80, 0x2A, 0xD0, 0xD9, 0x9B, 
  0x0A, 0x48, 0x14, 0x85, 0x00, 0x00, 0x00, 0x00, 0x00, 0xC0, 0x90, 0xF6, 
  0xBF, 0x29, 0x02, 0x00, 0x00, 0x00, 0x00, 0x00, 0x00, 0x00, 0x00, 0x00, 
  0x00, 0xD8, 0x07, 0x26, 0x64, 0x68, 0x53, 0xC1, 0xA1, 0x00, 0x00, 0x00, 
  0x00, 0x00, 0x10, 0x96, 0xF0, 0xE7, 0x7F, 0x00, 0x00, 0x00, 0x00, 0x00, 
  0x00, 0x00, 0x00, 0x00, 0x00, 0x00, 0x00, 0x54, 0x91, 0x00, 0x33, 0x24, 
  0x21, 0x0A, 0x00, 0x00, 0x00, 0x00, 0x00, 0x50, 0x03, 0xF9, 0xBD, 0x03, 
  0x00, 0x00, 0x00, 0x00, 0x00, 0x00, 0x00, 0x00, 0x00, 0x00, 0x00, 0x00, 
  0xA8, 0x04, 0xDB, 0x88, 0x92, 0x8C, 0x20, 0x00, 0x00, 0x00, 0x00, 0x00, 
  0x80, 0x58, 0xF1, 0xF7, 0x7E, 0x04, 0x00, 0x00, 0x00, 0x00, 0x00, 0x00, 
  0x00, 0x00, 0x00, 0x00, 0x00, 0x00, 0x35, 0x54, 0x69, 0x31, 0x22, 0x00, 
  0x00, 0x00, 0x00, 0x00, 0x00, 0x00, 0x61, 0xF8, 0xAD, 0x7A, 0x05, 0x00, 
  0x00, 0x00, 0x00, 0x00, 0x00, 0x00, 0x00, 0x00, 0x00, 0x00, 0x00, 0x80, 
  0x01, 0x92, 0x85, 0x4A, 0x13, 0x00, 0x00, 0x00, 0x00, 0x00, 0x60, 0x0C, 
  0xF2, 0xFF, 0x2F, 0x00, 0x00, 0x00, 0x00, 0x00, 0x00, 0x00, 0x00, 0x00, 
  0x00, 0x00, 0x00, 0x00, 0x80, 0xD5, 0x48, 0x24, 0x34, 0x08, 0x00, 0x00, 
  0x00, 0x00, 0x00, 0x48, 0x96, 0xF8, 0xFF, 0x75, 0x00, 0x00, 0x00, 0x00, 
  0x00, 0x00, 0x00, 0x00, 0x00, 0x00, 0x00, 0x00, 0x00, 0x00, 0x10, 0x0A, 
  0x9A, 0x81, 0x10, 0x00, 0x00, 0x00, 0x00, 0x00, 0x90, 0x91, 0xFE, 0x6B, 
  0x97, 0x01, 0x00, 0x00, 0x00, 0x00, 0x00, 0x00, 0x00, 0x00, 0x40, 0x04, 
  0x00, 0x00, 0x00, 0x00, 0x15, 0xA0, 0x8D, 0x05, 0x00, 0x00, 0x00, 0x00, 
  0x00, 0x60, 0x48, 0xE2, 0x5F, 0x2B, 0x00, 0x00, 0x00, 0x00, 0x00, 0x00, 
  0x00, 0x00, 0x00, 0x00, 0x01, 0x00, 0x00, 0x00, 0x00, 0x64, 0x05, 0x32, 
  0x04, 0x00, 0x00, 0x00, 0x00, 0x00, 0x00, 0x12, 0x7C, 0xF9, 0x36, 0x00, 
  0x00, 0x00, 0x00, 0x00, 0x00, 0x00, 0x00, 0x00, 0x18, 0x00, 0x00, 0x00, 
  0x00, 0x00, 0x00, 0x06, 0x00, 0x02, 0x00, 0x00, 0x00, 0x00, 0x00, 0x98, 
  0x15, 0xE9, 0xAF, 0x17, 0x00, 0x00, 0x00, 0x00, 0x00, 0x00, 0x00, 0x00, 
  0x00, 0x00, 0x00, 0x00, 0x00, 0x00, 0x00, 0x00, 0xB0, 0x54, 0x04, 0x00, 
  0x00, 0x00, 0x00, 0x00, 0x60, 0xC4, 0x34, 0xEA, 0x1C, 0x01, 0x00, 0x00, 
  0x00, 0x00, 0x00, 0x00, 0x00, 0x00, 0x00, 0x00, 0x00, 0x00, 0x00, 0x00, 
  0x00, 0x00, 0x4A, 0x00, 0x00, 0x00, 0x00, 0x00, 0x00, 0x20, 0x8A, 0x54, 
  0xB1, 0x04, 0x00, 0x00, 0x00, 0x00, 0x00, 0x00, 0x00, 0x00, 0x00, 0x00, 
  0x00, 0x00, 0x00, 0x00, 0x00, 0x00, 0x00, 0x50, 0x00, 0x00, 0x00, 0x00, 
  0x00, 0x00, 0xA8, 0x29, 0xA9, 0x05, 0x11, 0x00, 0x00, 0x00, 0x00, 0x00, 
  0x00, 0x00, 0x00, 0x00, 0x00, 0x00, 0x00, 0x00, 0x00, 0x00, 0x00, 0x00, 
  0x00, 0x00, 0x00, 0x00, 0x00, 0x00, 0x00, 0x18, 0x80, 0x51, 0xAC, 0x01, 
  0x00, 0x00, 0x00, 0x00, 0x00, 0x00, 0x00, 0x00, 0x00, 0x00, 0x00, 0x00, 
  0x00, 0x00, 0x00, 0x00, 0x00, 0x00, 0x00, 0x00, 0x00, 0x00, 0x00, 0x00, 
  0xC4, 0x36, 0xAC, 0x01, 0x00, 0x00, 0x00, 0x00, 0x00, 0x00, 0x00, 0x00, 
  0x00, 0x00, 0x00, 0x00, 0x00, 0x00, 0x40, 0x00, 0x00, 0x00, 0x00, 0x00, 
  0x00, 0x00, 0x00, 0x00, 0x00, 0x10, 0x88, 0x9D, 0x09, 0x00, 0x00, 0x00, 
  0x00, 0x00, 0x00, 0x00, 0x00, 0x00, 0x00, 0x00, 0x00, 0x00, 0x00, 0x00, 
  0x01, 0x00, 0x00, 0x00, 0x00, 0x00, 0x00, 0x00, 0x00, 0x00, 0x66, 0x23, 
  0x40, 0x22, 0x00, 0x00, 0x00, 0x00, 0x00, 0x00, 0x00, 0x00, 0x00, 0x00, 
  0x00, 0x00, 0x00, 0x00, 0x00, 0x00, 0x00, 0x00, 0x00, 0x00, 0x00, 0x00, 
  0x00, 0x00, 0x00, 0x22, 0x44, 0x5A, 0x00, 0x00, 0x00, 0x00, 0x00, 0x00, 
  0x00, 0x00, 0x00, 0x00, 0x00, 0x00, 0x00, 0x00, 0x00, 0x00, 0x00, 0x00, 
  0x00, 0x00, 0x00, 0x00, 0x00, 0x00, 0x00, 0x00, 0x99, 0x32, 0x12, 0x10, 
  0x00, 0x00, 0x00, 0x00, 0x00, 0x00, 0x00, 0x00, 0x00, 0x00, 0x00, 0x00, 
  0x00, 0x00, 0x00, 0x00, 0x80, 0x00, 0x00, 0x00, 0x00, 0x00, 0x00, 0x00, 
  0x00, 0x21, 0xC4, 0x92, 0x02, 0x00, 0x00, 0x00, 0x00, 0x00, 0x00, 0x00, 
  0x00, 0x00, 0x00, 0x00, 0x00, 0x00, 0x00, 0x00, 0x00, 0x10, 0x00, 0x00, 
  0x00, 0x00, 0x00, 0x00, 0x00, 0x80, 0xCC, 0x15, 0x08, 0x00, 0x00, 0x00, 
  0x00, 0x00, 0x00, 0x00, 0x00, 0x00, 0x00, 0x00, 0x00, 0x00, 0x00, 0x00, 
  0x00, 0x00, 0x00, 0x00, 0x00, 0x00, 0x00, 0x00, 0x00, 0x00, 0x00, 0x16, 
  0x52, 0x00, 0x00, 0x00, 0x00, 0x00, 0x00, 0x00, 0x00, 0x00, 0x00, 0x00, 
  0x00, 0x00, 0x00, 0x00, 0x00, 0x00, 0x00, 0x00, 0x00, 0x00, 0x00, 0x00, 
  0x00, 0x00, 0x00, 0x00, 0x50, 0x08, 0x02, 0x00, 0x00, 0x00, 0x00, 0x00, 
  0x00, 0x00, 0x00, 0x00, 0x00, 0x00, 0x00, 0x00, 0x00, 0x00, 0x00, 0x00, 
  0x00, 0x08, 0x00, 0x00, 0x00, 0x00, 0x00, 0x00, 0x80, 0x29, 0x46, 0x02, 
  0x00, 0x00, 0x00, 0x00, 0x00, 0x00, 0x00, 0x00, 0x00, 0x00, 0x00, 0x00, 
  0x00, 0x00, 0x00, 0x00, 0x00, 0x00, 0x00, 0x00, 0x00, 0x00, 0x00, 0x00, 
  0x00, 0x00, 0xA2, 0x00, 0x00, 0x00, 0x00, 0x00, 0x00, 0x00, 0x00, 0x00, 
  0x00, 0x00, 0x00, 0x00, 0x00, 0x00, 0x00, 0x00, 0x00, 0x00, 0x00, 0x00, 
  0x00, 0x00, 0x00, 0x00, 0x00, 0x00, 0x80, 0x06, 0x00, 0x00, 0x00, 0x00, 
  0x00, 0x00, 0x00, 0x00, 0x00, 0x00, 0x00, 0x00, 0x00, 0x00, 0x00, 0x00, 
  0x00, 0x00, 0x00, 0x00, 0x00, 0x00, 0x00, 0x00, 0x00, 0x00, 0x00, 0x40, 
  0x14, 0x00, 0x00, 0x00, 0x00, 0x00, 0x00, 0x00, 0x00, 0x00, 0x00, 0x00, 
  0x00, 0x00, 0x00, 0x00, 0x00, 0x00, 0x00, 0x00, 0x00, 0x00, 0x00, 0x00, 
  0x00, 0x00, 0x00, 0x00, 0x00, 0x03, 0x00, 0x00, 0x00, 0x00, 0x00, 0x00, 
  0x00, 0x00, 0x00, 0x00, 0x00, 0x00, 0x00, 0x00, 0x00, 0x00, 0x00, 0x00, 
  0x00, 0x00, 0x00, 0x00, 0x00, 0x00, 0x00, 0x00, 0x00, 0x40, 0x00, 0x00, 
  0x00, 0x00, 0x00, 0x00, 0x00, 0x00, 0x00, 0x00, 0x00, 0x00, 0x00, 0x00, 
  0x00, 0x00, 0x00, 0x00, 0x00, 0x00, 0x00, 0x00, 0x00, 0x00, 0x00, 0x00, 
  0x00, 0x00, 0xC0, 0x00, 0x00, 0x00, 0x00, 0x00, 0x00, 0x00, 0x00, 0x00, 
  0x00, 0x00, 0x00, 0x00, 0x00, 0x00, 0x00, 0x00, 0x00, 0x00, 0x00, 0x00, 
  0x00, 0x00, 0x00, 0x00, 0x00, 0x00, 0x00, 0x10, 0x00, 0x00, 0x00, 0x00, 
  0x00, 0x00, 0x00, 0x00, 0x00, 0x00, 0x00, 0x00, 0x00, 0x00, 0x00, 0x00, 
  0x00, 0x00, 0x00, 0x00, 0x00, 0x00, 0x00, 0x00, 0x00, 0x00, 0x00, 0x00, 
  0x00, 0x00, 0x00, 0x00, 0x00, 0x00, 0x00, 0x00, 0x00, 0x00, 0x00, 0x00, 
  0x00, 0x00, 0x00, 0x00, 0x00, 0x00, 0x00, 0x00, 0x00, 0x00, 0x00, 0x00, 
  0x00, 0x00, 0x00, 0x00, 0x00, 0x00, 0x00, 0x00, 0x00, 0x00, 0x00, 0x00, 
  0x00, 0x00, 0x00, 0x00, 0x00, 0x00, 0x00, 0x00, 0x00, 0x00, 0x00, 0x00, 
  0x00, 0x00, 0x00, 0x00, 0x00, 0x00, 0x00, 0x00, 0x00, 0x00, 0x00, 0x00, 
  0x00, 0x00, 0x00, 0x00, 0x00, 0x00, 0x00, 0x00, 0x00, 0x00, 0x00, 0x00, 
  0x00, 0x00, 0x00, 0x00, 0x00, 0x00, 0x00, 0x00, 0x00, 0x00, 0x00, 0x00, 
  0x00, 0x00, 0x00, 0x00, 0x00, 0x00, 0x00, 0x00, 0x00, 0x00, 0x00, 0x00, 
  0x00, 0x00, 0x00, 0x00, 0x00, 0x00, 0x00, 0x00, 0x00, 0x00, 0x00, 0x00, 
  0x00, 0x00, 0x00, 0x00, 0x00, 0x00, 0x00, 0x00, 0x00, 0x00, 0x00, 0x00, 
  0x00, 0x00, 0x00, 0x00, 0x00, 0x00, 0x00, 0x00, 0x00, 0x00, 0x00, 0x00, 
  0x00, 0x00, 0x00, 0x00, 0x00, 0x00, 0x00, 0x00, 0x00, 0x00, 0x00, 0x00, 
  0x00, 0x00, 0x00, 0x00, 0x00, 0x00, 0x00, 0x00, 0x00, 0x00, 0x00, 0x00, 
  0x00, 0x00, 0x00, 0x00, 0x00, 0x00, 0x00, 0x00, 0x00, 0x00, 0x00, 0x00, 
  0x00, 0x00, 0x00, 0x00, 0x00, 0x00, 0x00, 0x00, 0x00, 0x00, 0x00, 0x00, 
  0x00, 0x00, 0x00, 0x00, 0x00, 0x00, 0x00, 0x00, 0x00, 0x00, 0x00, 0x00, 
  0x00, 0x00, 0x00, 0x00, 0x00, 0x00, 0x00, 0x00, 0x00, 0x00, 0x00, 0x00, 
  0x00, 0x00, 0x00, 0x00, 0x00, 0x00, 0x00, 0x00, 0x00, 0x00, 0x00, 0x00, 
  0x00, 0x00, 0x00, 0x00, 0x00, 0x00, 0x00, 0x00, 0x00, 0x00, 0x00, 0x00, 
  0x00, 0x00, 0x00, 0x00, 0x00, 0x00, 0x00, 0x00, 0x00, 0x00, 0x00, 0x00, 
  0x00, 0x00, 0x00, 0x00, 0x00, 0x00, 0x00, 0x00, 0x00, 0x00, 0x00, 0x00, 
  0x00, 0x00, 0x00, 0x00, 0x00, 0x00, 0x00, 0x00, 0x00, 0x00, 0x00, 0x00, 
  0x00, 0x00, 0x00, 0x00, 0x00, 0x00, 0x00, 0x00, 0x00, 0x00, 0x00, 0x00, 
  0x00, 0x00, 0x00, 0x00, 0x00, 0x00, 0x00, 0x00, 0x00, 0x00, 0x00, 0x00, 
  0x00, 0x00, 0x00, 0x00, 0x00, 0x00, 0x00, 0x00, 0x00, 0x00, 0x00, 0x00, 
  0x00, 0x00, 0x00, 0x00, 0x00, 0x00, 0x00, 0x00, 0x00, 0x00, 0x00, 0x00, 
  0x00, 0x00, 0x00, 0x00, 0x00, 0x00, 0x00, 0x00, 0x00, 0x00, 0x00, 0x00, 
  0x00, 0x00, 0x00, 0x00, 0x00, 0x00, 0x00, 0x00, 0x00, 0x00, 0x00, 0x00, 
  0x00, 0x00, 0x00, 0x00, 0x00, 0x00, 0x00, 0x00, 0x00, 0x00, 0x00, 0x00, 
  0x00, 0x00, 0x00, 0x00, 0x00, 0x00, 0x00, 0x00, 0x00, };
